<?xml version="1.0" encoding="UTF-8"?><svg width="325" height="260" xmlns="http://www.w3.org/2000/svg"><path d="M316.9 105.6h-32.5V73.1c0-4.4-3.7-8.1-8.1-8.1H260a8.1 8.1 0 0 0-8.1 8.1v32.5h-32.5a8.1 8.1 0 0 0-8.2 8.2V130c0 4.5 3.7 8.1 8.2 8.1h32.5v32.5c0 4.5 3.6 8.2 8.1 8.2h16.3c4.4 0 8-3.7 8-8.2v-32.5H317c4.4 0 8.1-3.6 8.1-8.1v-16.3c0-4.4-3.7-8-8.1-8ZM113.8 130a65 65 0 1 0 0-130 65 65 0 0 0 0 130Zm45.5 16.3h-8.5a88.5 88.5 0 0 1-74 0h-8.5A68.3 68.3 0 0 0 0 214.4v21.1C0 249.1 11 260 24.4 260H203c13.5 0 24.4-11 24.4-24.4v-21.1a68.3 68.3 0 0 0-68.3-68.3Z" fill="#FFF" fill-rule="nonzero"/></svg>