<svg width="510" height="512" xmlns="http://www.w3.org/2000/svg"><g fill="none" fill-rule="evenodd"><path d="M393.9 0l21.3 3.4-.5 15c3 .9 6 1.8 8.9 2.9l8.5-12.4 19.2 9.8-5 14 7.5 5.5 11.9-9.1 15.2 15.2-9.1 11.8c2 2.5 3.8 5 5.5 7.6l14-5 9.8 19.2-12.3 8.4 2.9 9 15-.5 3.3 21.3-14.5 4.2c.2 3.1.2 6.2 0 9.3l14.5 4.2-3.4 21.3-15.2-.5c-.8 3-1.8 6-2.9 8.9l12.4 8.4-9.8 19.3-14.3-5.1c-1.7 2.5-3.5 4.9-5.4 7.3l9.3 12-15.2 15.3-12.3-9.4a110 110 0 01-7.2 5.2l5.2 14.6-19.3 9.8-8.8-13c-2.7 1-5.5 2-8.4 2.8l.5 15.7-21.4 3.3-4.4-15.1h-8.8l-4.5 15.4-21.3-3.4.5-16a110 110 0 01-8.3-2.7l-9 13.2-19.3-9.8 5.4-15c-2.4-1.7-4.8-3.4-7-5.2l-12.8 9.8-15.2-15.2 9.8-12.7c-1.9-2.3-3.6-4.6-5.3-7l-15 5.3L269 172l13-9c-1-2.7-1.9-5.5-2.7-8.4l-15.8.5-3.4-21.3 15.1-4.4v-9l-15.1-4.3 3.4-21.3 15.5.5 2.8-8.7-12.6-8.6 9.8-19.3 14.4 5.1c1.6-2.5 3.4-5 5.3-7.3l-9.3-12 15.2-15.3 12 9.2a110 110 0 017.4-5.4l-5-14.2L338 9.1l8.4 12.4c2.9-1 5.8-2 8.8-2.8l-.5-15L376.2.2l4.2 14.3c3-.2 6.2-.2 9.2 0L394 0zm-22.5 39.4a86.7 86.7 0 1027 171.4 86.7 86.7 0 00-27-171.4zm91.3 73.7A78.2 78.2 0 01318 164.9a25.8 25.8 0 10-8.6-21.4l-1.2-6a78.2 78.2 0 01154.6-24.4zm-82 47.4a20 20 0 100 39.9 20 20 0 000-40zM403 61a47.7 47.7 0 10.1 95.4 47.7 47.7 0 000-95.4z" fill="#FFF"/><path d="M384 69.2l20.9 21.7c-4-2.4-6.3-2.5-7.2-.3-1.3 3.3-.5 5 2.3 8 1.9 2 4.3 2.8 7.2 2.3l-2.8 10.6 9-6.1c.6 2.8 2.1 4.7 4.7 5.8 3.8 1.5 5.6 1.7 8.3-.6 1.7-1.4.9-3.5-2.5-6.2l-.3-.2 27.5 11.9L422 123c4-2.1 5.3-4 3.8-5.9-2.2-2.7-4-2.8-8-2a7.2 7.2 0 00-5.6 5l-7.6-7.4.7 10.6c-2.7-1-5.1-.6-7.3 1-3.2 2.6-4.4 4-3.7 7.5.4 2.2 2.6 2.6 6.6 1l.3-.2-24 17.9 8.6-28.6c-.2 4.5.9 6.6 3.2 6.2 3.4-.6 4.5-2.1 5.7-6 .8-2.6.4-5-1.5-7.3l10-2.8-9.8-4.6a7.4 7.4 0 002.9-7c-.6-4-1.3-5.8-4.7-7-2.2-.7-3.7 1.1-4.4 5.5v.3l-3.2-30z" fill="#B40000"/><path d="M182.5 147a182.5 182.5 0 110 365 182.5 182.5 0 010-365zM297 209.7a168 168 0 00-138.3-42.5l.6 9.6-7.2 1.2-2.7-9.1c-2.7.5-5.3 1.1-8 1.8l1.6 9.4-7 2-3.7-8.8c-2.6.8-5.1 1.7-7.7 2.7l2.6 9.2-6.8 2.7-4.6-8.4c-2.5 1-5 2.2-7.4 3.4l3.6 9-6.5 3.4-5.4-8a167 167 0 00-7 4.3l4.4 8.5-6 4-6.2-7.2-6.6 4.9 5.3 8-5.6 4.7-6.9-6.6-6 5.6 5.9 7.1-5 5.2-7.3-5.7a168 168 0 00-42.3 138.5l9.3-.6 1.3 7.2-9 2.6c.6 2.7 1.2 5.4 2 8l9.1-1.5 2 7L23 385l2.7 7.8 9-2.6 2.7 6.8-8.2 4.4c1.1 2.6 2.3 5 3.5 7.5l8.7-3.4 3.4 6.4-7.7 5.3 4.3 7 8.3-4.3 4 6-7 6.1c1.6 2.2 3.2 4.4 5 6.6l7.7-5.2L64 439l-6.4 6.8 5.6 6 7.4-6.2 5.2 5-6 7.6a168 168 0 00138 42l-.5-8.9 7.2-1.3 2.6 8.7 8-1.9-1.5-8.9 7-2 3.5 8.4 7.9-2.7-2.5-8.7 6.8-2.8 4.3 8c2.6-1.1 5-2.3 7.5-3.5l-3.3-8.4 6.4-3.5 5.2 7.5a167 167 0 007-4.3l-4.1-8 6-4 5.9 6.8c2.3-1.6 4.5-3.3 6.6-5l-5-7.5 5.6-4.7 6.6 6.2c2-1.7 3.8-3.5 5.7-5.4l-6-7.2 5-5.1 7.4 5.7a168 168 0 0042.7-138.2l-9.3.6-1.3-7.2 9-2.6-1.9-8-9.1 1.5-2-7 8.6-3.6a168 168 0 00-2.7-7.8l-9 2.5-2.7-6.8 8.2-4.4a167 167 0 00-3.5-7.5l-8.6 3.4-3.5-6.4 7.7-5.3a167 167 0 00-4.2-7l-8.2 4.3-4.1-6 7-6.1c-1.5-2.3-3.2-4.5-4.9-6.6l-7.7 5.1-4.7-5.6 6.4-6.7-5.7-6.1-7.3 6-5.2-5zm-140-26.8a153.5 153.5 0 1153.3 302.4A153.5 153.5 0 01157 182.9zM111.4 205c-4.6 0-7 10.3-7.4 31 16.5 41 33.4 84.9 50.7 131.5 30.8 83 43.6 106.1 38.4 69.3l-.6-14.7c7.4-3.5 17.5-18 30.2-43.7l-37.8-141.8v-.1c16.5 41 33.3 84.7 50.6 131.3 30.8 83 43.6 106 38.4 69.2l-.7-17.4L213 236.2c-9.3-20.7-16.3-31-20.9-31-4.4 0-6.9 9.8-7.3 29.4l-.7-16-8.1 31.1c-17.6-54.3-23-54.3-16.1 0 6 48.6 15.5 99.2 28.2 152-.5 0-1 0-1.6-.3L132.2 236c-9.3-20.7-16.2-31-20.8-31zm-7.4 31l13.2 154c-4.7 10.3-9.1 13.7-13.2 10.1-4-3.6-8.4-13.3-13-29 1.3 25.1 5.7 41.7 13 49.5 7.4 7.9 20-6.3 38-42.5L104 236zm152.7 14c-17.5-54.3-22.9-54.3-16 0a1401 1401 0 0032.1 168l.3 1.1-8.2-200.3zM185 238.4l13 151.9a30 30 0 01-6.4 9.8L185 238.4z" fill="#FFF"/></g></svg>