<svg width="616" height="615" xmlns="http://www.w3.org/2000/svg"><g fill="none" fill-rule="evenodd"><path d="m475.6.2 25.6 4-.5 18c3.6 1 7.1 2 10.6 3.4l10.1-14.8 23 11.8-6 16.8c3.2 2 6.2 4.2 9.1 6.6l14.2-11L580 53.3l-11 14.2c2.4 2.9 4.6 6 6.7 9l16.7-6 11.8 23.1-14.8 10c1.3 3.6 2.4 7.1 3.4 10.7l18-.5 4 25.6-17.3 5v11l17.5 5.2-4 25.5-18.4-.5c-1 3.5-2.2 7-3.5 10.5l15 10.2-11.8 23.1-17.3-6.2c-2 3-4.1 6-6.4 8.8l11.3 14.6-18.3 18.3-14.7-11.4c-2.8 2.2-5.8 4.3-8.8 6.3l6.3 17.5-23 11.8-10.7-15.5a132 132 0 0 1-10 3.2l.5 18.8-25.6 4-5.3-18-10.6-.1-5.3 18.3-25.6-4 .6-19.2c-3.4-1-6.7-2-10-3.2l-10.8 15.8-23-11.8 6.4-18c-3-2-5.7-4-8.5-6.2L368.3 265 350 246.7l11.7-15.1c-2.2-2.8-4.2-5.6-6.2-8.6l-18 6.5-11.7-23.1 15.7-10.7c-1.2-3.3-2.3-6.6-3.3-10l-19 .5-4-25.6 18-5.3v-10.6l-18.2-5.3 4-25.5 18.9.6c1-3.5 2-7 3.3-10.4l-15.3-10.4 11.8-23.1 17.3 6.2c2-3 4.1-6 6.4-8.8L350 53.4l18.3-18.3L383 46.3c2.8-2.3 5.8-4.5 8.8-6.5l-6.1-17.1 23-11.8 10.2 15c3.5-1.4 7-2.5 10.5-3.5l-.5-18 25.6-4 5 17.1c3.8-.2 7.5-.2 11.2 0l5-17.3Zm-26.9 47a104 104 0 1 0 32.5 205.6 104 104 0 0 0-32.5-205.5Zm109.5 88.5A93.8 93.8 0 0 1 384.7 198a30.8 30.8 0 0 0 51.3-23.3 31 31 0 0 0-61.8-2.8 93.7 93.7 0 1 1 184-36.2Zm-98.3 56.8a24 24 0 1 0 0 47.8 24 24 0 0 0 0-47.8Zm26.7-119.1a57.2 57.2 0 1 0 0 114.4 57.2 57.2 0 0 0 0-114.4Z" fill="#FFF"/><path d="m460.8 83 25 26c-4.6-2.9-7.5-3-8.6-.3-1.5 4-.5 6 2.8 9.6a8.9 8.9 0 0 0 8.7 2.7l-3.4 12.7 10.9-7.3a8.7 8.7 0 0 0 5.5 7c4.5 1.8 6.8 2 10-.7 2-1.8 1-4.3-3-7.5l-.3-.2 32.9 14.2-35 8.3c4.9-2.5 6.4-4.9 4.7-7-2.7-3.3-5-3.4-9.7-2.4a8.7 8.7 0 0 0-6.6 5.9l-9.2-8.9.8 12.8a8.7 8.7 0 0 0-8.7 1.2c-3.9 3-5.2 4.9-4.5 9 .6 2.7 3.2 3 8 1.1l.4-.1-28.8 21.4 10.3-34.4c-.3 5.5 1 8 3.8 7.5 4.1-.6 5.3-2.5 6.8-7.2 1-3.1.4-6-1.7-8.7l11.9-3.4-11.8-5.5c2.8-2.3 4-5.1 3.5-8.4-.6-4.9-1.5-7-5.6-8.3-2.6-.9-4.4 1.3-5.2 6.5v.3l-3.9-36Z" fill="#B40000"/><path d="M219 176a219 219 0 1 1 0 438 219 219 0 0 1 0-438Zm137.3 75.2a201.6 201.6 0 0 0-165.9-51l.7 11.5-8.6 1.6-3.2-11c-3.2.6-6.4 1.4-9.6 2.2l2 11.3-8.5 2.4-4.4-10.6c-3.1 1-6.2 2-9.3 3.2l3.1 11-8.1 3.3L139 215l-8.9 4.1 4.3 10.7-7.8 4.2-6.5-9.6-8.4 5.1 5.3 10.2-7.2 5-7.5-8.9-7.8 6 6.3 9.5-6.7 5.7-8.3-8c-2.5 2.2-4.9 4.5-7.2 6.8l7 8.5-6 6.2-8.7-6.8A201.6 201.6 0 0 0 20.2 430l11.1-.7 1.5 8.6-10.6 3.2c.6 3.2 1.4 6.4 2.2 9.6l11-1.8 2.4 8.4-10.3 4.2c1 3.2 2 6.3 3.2 9.4l10.8-3 3.3 8.1-9.9 5.3 4.2 9 10.5-4.1 4 7.7-9.2 6.3 5.1 8.5 10-5.2 4.9 7.3-8.5 7.2c1.9 2.7 3.9 5.3 6 7.9l9.3-6.2 5.6 6.7-7.7 8c2.2 2.5 4.4 5 6.7 7.3l9-7.4 6.1 6-7 9a201.6 201.6 0 0 0 165.6 50.6l-.7-10.8 8.6-1.5 3 10.4 9.8-2.2-1.8-10.7 8.4-2.4 4.1 10 9.5-3.2-3-10.5 8.2-3.3 5.1 9.6 9-4.2-4-10.1 7.8-4.1 6.1 9 8.6-5.2-5-9.6 7.2-5 7 8.3 8-6-6-9 6.7-5.6 7.9 7.4 6.9-6.4-7.2-8.6 6-6.2 8.8 6.9a201.6 201.6 0 0 0 51.2-166l-11 .8-1.6-8.7 10.7-3.1-2.2-9.7-11 2-2.4-8.5 10.3-4.3c-1-3.1-2-6.3-3.2-9.3l-10.7 3-3.3-8.2 9.8-5.3-4.1-9-10.4 4.2-4.1-7.8 9.2-6.3-5-8.5-10 5.2-4.9-7.3 8.5-7.2c-1.9-2.7-3.9-5.4-6-8l-9.2 6.2-5.7-6.7 7.8-8-6.9-7.4-8.8 7.3-6.2-6Zm-168-32.1a184.2 184.2 0 1 1 64 362.8 184.2 184.2 0 0 1-64-362.8Zm-54.6 26.5c-5.5 0-8.5 12.4-8.9 37.2a6123.4 6123.4 0 0 1 60.9 157.9c37 99.6 52.3 127.3 46 83l-.7-17.6c8.9-4.2 21-21.7 36.2-52.5l-45.3-170v-.2c19.7 49.1 40 101.6 60.7 157.5 37 99.6 52.3 127.3 46 83l-.8-20.8-72.2-220c-11.2-24.8-19.5-37.2-25-37.2-5.4 0-8.3 11.7-8.8 35.2L221 262l-9.8 37.4c-21-65.2-27.5-65.2-19.4 0 7.4 58.2 18.7 119 34 182.3-.7 0-1.3 0-2-.3l-65.1-198.5c-11.2-24.8-19.6-37.2-25-37.2Zm-8.9 37.2 15.8 184.8c-5.6 12.4-10.9 16.4-15.8 12.1-4.9-4.3-10-15.9-15.6-34.8 1.6 30.2 6.8 50 15.6 59.4 8.8 9.5 24-7.5 45.5-51l-45.5-170.5Zm203 219.7v.6l.5 1.5-.5-2Zm-19.7-203c-21-65.1-27.5-65.1-19.4 0 8.1 64.3 21 131.6 38.8 202l.3 1-10-240.4Zm-86.2-13.8 15.6 182.2a36 36 0 0 1-7.6 11.8l-8-194Z" fill="#FFF"/></g></svg>