<svg width="192" height="209" xmlns="http://www.w3.org/2000/svg"><g fill="#FFF" fill-rule="evenodd"><path d="M47 70.8c15.7 9 25.7 12.7 30.1 11.2 5.8-2 5.8-21.5 8.4-23.6C91.1 54.1 94.6 45.6 96 33c1.5 12.4 5.2 20.8 11.1 25.4 2.8 2.1.7 21.7 6.2 23.6 4.3 1.5 15-2.2 31.7-11.2L96 208 47 70.8Z"/><path d="M69.5.9c-20.3 23-29.3 41.7-26.7 55.8C44.4 66 51 74 62.8 81c4.2 2.5 5.3 16.9 3.2 43a147.7 147.7 0 0 0-19-35.4C34.8 73.3 12.4 75.6 3.8 70-9.6 61.2 12.4 38 69.5.9ZM122 1c20.5 23 29.5 41.7 27 55.9-1.7 9.1-8.4 17.2-20.1 24.1-4.3 2.6-5.5 16.9-3.4 43 6.6-15.9 13-27.6 19.2-35.3 12.3-15.2 34.9-13 43.5-18.6 13.4-8.8-8.6-31.8-66.2-69.1Z"/><path d="M96 1c24.3 0 44 19.5 44 43.5S120.3 88 96 88 52 68.5 52 44.5 71.7 1 96 1Zm0 7a37 37 0 1 0 0 74 37 37 0 0 0 0-74Z"/></g></svg>