<svg width="457" height="552" xmlns="http://www.w3.org/2000/svg"><g fill="none" fill-rule="evenodd"><path d="M455.7 546.7a5 5 0 01-5 5H104.8a5 5 0 01-1.8-.4l-99.5-39a5 5 0 010-9.3l99.5-39a5 5 0 011.8-.3h345.9a5 5 0 015 5v78zm-356-3.5v-70.1a1 1 0 00-1.4-1l-73 27.6a1 1 0 00-.6 1v15c0 .5.2.9.6 1l73 27.4a1 1 0 001.4-.9zm342-23.5v-46a2 2 0 00-2-2h-324a2 2 0 00-2 2v46c0 1 .8 2 2 2h324a2 2 0 002-2zM427 0a30 30 0 0130 30v383a30 30 0 01-30 30H44a30 30 0 01-30-30V30A30 30 0 0144 0h383zm-3 77H48a20 20 0 00-20 19.7V409a20 20 0 0019.7 20H424a20 20 0 0020-19.7V97c0-11-9-20-20-20zM231 263a5 5 0 015 5v131a5 5 0 01-5 5H63a5 5 0 01-5-5V268a5 5 0 015-5h168zm-3 9H67v124h161V272zm-46.3 53.3c1.2 1 2.2 2.1 3 3.5L217 387H78l29.2-43.6a11 11 0 0117.8-.6l15 19.3 26.3-34.7a11 11 0 0115.4-2zM123.5 287a18.5 18.5 0 110 37 18.5 18.5 0 010-37zm83.5-81a8 8 0 110 16H71a8 8 0 110-16h136zm100-45a8 8 0 110 16H71a8 8 0 110-16h236zm0-40a8 8 0 110 16H71a8 8 0 110-16h236zM125 14v51h9l-9-51zm11 0h-11l17.5 51H155l-6-34v-8.2L163.5 65h6.5V14h-6.5v44.3L156.9 14h-14.4v44.3L135.9 14zm292 10H252a16 16 0 00-.3 32H428a16 16 0 100-32zM91 24a16 16 0 100 32 16 16 0 000-32z" fill="#FFF"/><circle fill="#B40000" cx="44" cy="40" r="16"/></g></svg>