<svg width="615" height="611" xmlns="http://www.w3.org/2000/svg"><g fill="none" fill-rule="evenodd"><path d="M614.5 605.5a5 5 0 0 1-5 5H143.1a5 5 0 0 1-1.8-.3l-138-54a5 5 0 0 1 0-9.4l138-54a5 5 0 0 1 1.8-.3h466.4a5 5 0 0 1 5 5v108Zm-478.5-7v-95a1 1 0 0 0-1.4-1l-98 37.3a1 1 0 0 0-.6.9v20.8c0 .4.3.8.6 1l98 37a1 1 0 0 0 1.4-1Zm458.5-32v-63a2 2 0 0 0-2-2h-436a2 2 0 0 0-2 2v63c0 1.1.9 2 2 2h436a2 2 0 0 0 2-2Z" fill="#FFF"/><g transform="translate(82)"><path d="M421 0a30 30 0 0 1 30 30v392a30 30 0 0 1-30 30H30a30 30 0 0 1-30-30V30A30 30 0 0 1 30 0h391Zm-3.2 78.6H34.3a20 20 0 0 0-20 19.6v319.5a20 20 0 0 0 19.6 20h383.9a20 20 0 0 0 20-19.6V98.6c0-11-9-20-20-20ZM221 268.3a5 5 0 0 1 5 5v134a5 5 0 0 1-5 5H49.8a5 5 0 0 1-5-5v-134a5 5 0 0 1 5-5H221Zm-3.1 9.2h-164V404h164V277.5Zm-47.3 54.2a11 11 0 0 1 3 3.5l33 59.7H65.3L95 350.2a11 11 0 0 1 17.8-.7l15.5 20 27-35.6a11 11 0 0 1 15.3-2.2Zm-59.1-38.9a18.9 18.9 0 1 1 0 37.7 18.9 18.9 0 0 1 0-37.7Zm85.1-82.6a8 8 0 0 1 8 8v.3a8 8 0 0 1-8 8H58a8 8 0 0 1-8-8v-.3a8 8 0 0 1 8-8h138.7Zm101.8-46a8 8 0 0 1 8 8v.4a8 8 0 0 1-8 8H58a8 8 0 0 1-8-8v-.3a8 8 0 0 1 8-8h240.5Zm0-40.7a8 8 0 0 1 8 8v.3a8 8 0 0 1-8 8H58a8 8 0 0 1-8-8v-.3a8 8 0 0 1 8-8h240.5ZM113 14.3v52h9.2l-9.2-52Zm11.1 0H113l17.8 52h12.8l-6.2-34.7v-8.4l14.8 43.1h6.6v-52h-6.6v45.2l-6.7-45.2h-14.7v45.2L124 14.3Zm297.3 10.2h-179A16.3 16.3 0 0 0 242 57h179.4a16.3 16.3 0 0 0 0-32.6Zm-343 0a16.3 16.3 0 1 0 0 32.6 16.3 16.3 0 0 0 0-32.6Z" fill="#FFF"/><circle fill="#B40000" cx="30.5" cy="41.5" r="16.5"/></g></g></svg>