<svg width="615" height="615" xmlns="http://www.w3.org/2000/svg"><g fill="none" fill-rule="evenodd"><path d="m307.5 0 293.7 147a25 25 0 0 1 13.8 22.4V590a25 25 0 0 1-25 25H25a25 25 0 0 1-25-25V169.4a25 25 0 0 1 13.8-22.3L307.5 0Zm-86.2 396L32 578.7a6 6 0 0 0 4.2 10.4h544a6 6 0 0 0 4.2-10.4L395 396.2a6 6 0 0 0-8-.2l-75.7 64a6 6 0 0 1-7.8 0l-74.2-64.2a6 6 0 0 0-8 .2Zm-183-162.6a7 7 0 0 0-7 7V545a7 7 0 0 0 12 4.9L196 389.5a7 7 0 0 0-.2-10L43 235.4a7 7 0 0 0-4.8-2Zm545.7-5a7 7 0 0 0-10 .2L421.4 388.9a7 7 0 0 0 .3 10L574.3 543a7 7 0 0 0 11.8-5V233.3a7 7 0 0 0-2.1-5Zm-8.3-36.7H40.5a7 7 0 0 0-4.5 12.4l267.6 224.4a7 7 0 0 0 9 0L580.2 204a7 7 0 0 0-4.5-12.4Z" fill="#FFF"/><path d="M318.6 490c33.3-.5 11.7-12.2 19.4-15.6 4.1-1.9 8.3 15.1 23.5-2.4 6.6-7.6-2.4-14.3 0-23.7 1.6-6.4 18.5-11.6 18.5-19.7 0-9.1-11.3-7-13.7-14.4-.8-2.6 13.7 7.4 6.4-12.9-7.3-20.3-15.4-3.1-15-6.8.8-7.8 5.3-16.3 0-18.9-6-2.9-15.6-6.8-22.2-8.3-2-.5-15 8.4-16.9 4.6-2.3-5 18.1-13.9-10.1-13.9-28.2 0-14.3 3-15.3 9.3-.7 4.5-3.6 5-7.8 4.6-11-1 0-13.9-19.8-4.6-24 11-3.6 13.3-9 20.3-2.2 2.7-.7 7.3-3.3 9.6-6 5.2-16.3 7.2-16.3 11.1 0 32 8.8 8.9 8.8 20.3 0 2 3.8 6.1 4 8 .2 2.6-8.4 5.9-7.3 8.3 7.3 16.8 7.7 6.4 14 10.8 3.4 2.4-14 3.3 0 18.7 14 15.3 22.8 8.6 34 8.6 11 0-2.3 7 28.1 7Z" fill="#B40000"/><path d="m273 386 13.7 77H273v-77Zm47.1 0 10 67v-67h9.9v77h-10l-20.6-60v16l7.9 44h-17.8L273 386h16.6l9.9 67v-67h20.6Z" fill="#FFF"/></g></svg>