<svg width="615" height="614" xmlns="http://www.w3.org/2000/svg"><g fill="none" fill-rule="evenodd"><path fill="#FFF" d="M227 120h21L146 474h-21zM90.7 190H116L24 300.4 116 404H90.7L0 300.4zM524.3 404H499l92-110.4L499 190h25.3L615 293.6z"/><path d="M208.4 613c12.7 0 24.5-1.6 34.2-4.2 2.7-.8 112-3.2 120-6.2s-102.6-1.6-100.3-3c3-1.6 1.2-.6 3-2.6 2.2-2.5 271.7 0 271.7-8 0-3.9-270.6-7.6-274.7-10.8-10-7.8-30.3-13.2-54-13.2-33.3 0-60.3 10.7-60.3 24s27 24 60.4 24Z" fill="#B40000"/><path d="M435.5 29c29.8 12.7 47.5 33 53 60.8l-125.2 295-84 105.7-5.4-3.1-32.1 42.5 4 2.6-42.8 54 75-176.9c7.8-4 21-17.8 29.3-37.2 10.4-24.7 23-43 3.7-51.2-19.2-8.1-23.4 13.7-33.9 38.4-8.2 19.3-9.2 38.2-6.8 46.6l-73.8 174 8.8-67h4.4l8.3-47.5-6-2.6 17.8-135L355 33c2.4-1.5 4.8-3 7.3-4.2l-63.4 149.3a103 103 0 0 1 8.5-11.5c1.7-1.8 3.5-3 5.4-3.5h.3L371.2 25l5.2-1.7-58.7 138.5c1-1.2 2.1-2.1 3.1-2.6l2.2-1h.1l57.2-135.9a89 89 0 0 1 55.2 6.7ZM336.3 178l-31.2 73.6 12.8 5.5 18.4-79.1Zm15.5 6.6-15.5-6.6-6.5 84.1 16.6 7 10.6-45 6.4-15.3-5 65.5 9.3 4 31.2-73.7-9.3-4-27.1 64 17.9-68-19.3-8.1-27.2 64 18-68Z" fill="#FFF"/></g></svg>