<svg width="597" height="563" xmlns="http://www.w3.org/2000/svg"><g fill="none" fill-rule="evenodd"><path d="M457 19c-12 9-16 13-12 12 24-3 42 1 57 8l36 10-23-3 17 11c19 13 42 33 51 70 1 3 1 23-3 30l-7 10-1 3-2 6v2l-2 7 12 19 1 2c6 9 12 18 15 26 1 4-4 9-16 16v24l-8 24c-10 39-16 59-21 62-6 4-30 4-69 0l-13 22v18l-12 10v19l58 16 23 81c-45 29-80 42-104 38-61-10-95-62-161-81s-151-15-256 10c82-46 140-77 172-93 33-17 68-23 108-18l3-7c5-9 15-14 24-11l6 2 7-34c-11-4-21-24-29-58-2-10-14-30-35-60h19l-19-12 15-6-22-11 42-69c2-11 45-57 88-74l22-8h1l38-13zM118 0c65 0 118 59 118 132 0 11-3 28-8 50l34 37-66 12c-32 9-58 14-78 14C53 245 0 204 0 132 0 59 53 0 118 0z" fill="#FFF"/><path d="M52 49l27 148H52V49zm90 0l20 129V49h19v148h-19L123 86v35l14 76h-33L52 49h32l20 129V49h38z" fill="#B40000"/></g></svg>