<svg xmlns="http://www.w3.org/2000/svg" viewBox="0 0 656 656"><path d="M328 0a328 328 0 1 1 0 656 328 328 0 0 1 0-656ZM41 355.3v-.3a268 268 0 0 0 536 2.9C469.7 416.2 373 450 287 459.2a63.5 63.5 0 0 1-117.4-5.4A196.5 196.5 0 0 1 41 355.3ZM309 87A268 268 0 0 0 43.2 320.9c32.3 48.2 74 79.6 125.2 94.2a63.5 63.5 0 0 1 123.5 5.8c78.5-10.2 173-42.5 283.3-96.9-4.2-37-16-71.9-34-102.8-4.5 2-9.4 3.9-14.5 5.3-35.6 10.2-94.2 28.8-75.6-20.4 14.7-39 17.2-45.8 35.2-52A267 267 0 0 0 309 87Zm166.5 192.8c24-6.8 44.8-7 46.7-.3 2 6.6 4 28-42.5 41.7-46.4 13.7-64.4 6.6-66.3 0-2-6.7 38.2-34.5 62.1-41.4Z" fill="#FFF" fill-rule="evenodd"/></svg>