<svg width="234" height="234" xmlns="http://www.w3.org/2000/svg"><g fill="none" fill-rule="evenodd"><g><circle fill="#FFF" cx="117" cy="117" r="117"/><circle fill="#000" cx="117" cy="117" r="109.2"/><circle fill="#FFF" cx="117" cy="117" r="95.5"/><path fill="#FFF" d="m163.4 111.8 67.3 10.6-2.1 13.6-67.4-10.7zM29.4 46l40.4 27.4-18.6 27.5-40.4-27.3zM184 94.8l40.7-13.3 1.9 5.6-40.8 13.3zM5.8 108.1h33.1v21.4H5.8zM193.8 81.2l25.8-13.7 1.8 3.4-25.8 13.7z"/><circle fill="#000" cx="116" cy="118" r="90.7"/></g><path d="m165.9 74.4 8.1-3.3c-2-7.3-4.4-12.7-7.5-18.1l-8 2.8c2.7 5.1 5.3 11.8 7.4 18.6Zm-46 93.6c16.1 0 27.2-7 27.2-17.6v-1a67.4 67.4 0 0 1 15 11.7l8-21-2.4-1.4a106 106 0 0 0-20.4-11.3c-.6-9-.8-14.8-1-20.5v-.9l-.1-5c5.7-.5 11.7-1.4 16-2.3 2.6-.6 2.8-.6 4.6-.7l-.8-19.8c-4.3 1.5-10.6 2.7-20.5 4v-1c0-6.6.6-11 1.8-13.1 2.1 3.8 3.5 7 4 9.5l10-3.5c-2.7-8-5.4-14-8.5-19.2l-9.8 2.8c1.3 1.8 1.4 2 2.2 3.6H125c.4 1.4.5 3 .6 5.6v16.6l-6.9.3H117c-10.1 0-18.7-.8-24-2l-.3 19.9 1.5-.1 2.2.1c11.8.5 15.3.7 18.3.7H126l.3 10.2.2 6.4.2 3.4c-2.8-.5-4.7-.7-7.4-.7-8 0-14.7 1.8-19.5 5.1a21.7 21.7 0 0 0-9.6 18.2c0 14.3 11 23 29.6 23Zm-57 0 22.2-.9a104.6 104.6 0 0 1 5.1-42.2L80 121.7c-.1-17.8 5-47.8 10-59.3l-24.3-1.6v.6c0 1.8-.5 5.1-1.6 10.6-4 21-5.2 31.8-5.2 48.6v.8c0 13.1.5 19.7 2.9 37l.6 4.6.3 2.7.1 2.3Zm56.3-19.5c-4.6 0-7.6-2.2-7.6-5.6 0-3.7 3.2-6 8.4-6 2.5 0 4.2.3 7.1 1.4l.1 2.6c0 5.2-2.5 7.6-8 7.6Z" fill="#FFF" fill-rule="nonzero"/></g></svg>