<?xml version="1.0" encoding="UTF-8"?><svg width="40" height="40" xmlns="http://www.w3.org/2000/svg"><g fill="none" fill-rule="evenodd"><g stroke="#FFF" stroke-width="2"><path d="m20 1 14.2 4.8L39 20l-4.7 14.2L20 39 5.8 34.2 1 20 5.8 5.8 20 1Z"/><circle cx="20" cy="20" r="16"/></g><path d="M14 8.8c4.8-3 11-2 14.7 2.3l-3.5 3a6.8 6.8 0 0 0-8.7-1.3 6.7 6.7 0 0 0-3.1 6.4l1.2-.2-3.1 5.5-5.3-3.8 2.5-.5c-.6-4.4 1.3-9 5.2-11.4ZM26.6 30.5c-5 3.2-11.7 1.8-15.7-2.9l3.7-3.3a7.2 7.2 0 0 0 9.3 1.8 7.1 7.1 0 0 0 3-7.8l-2.4.5 3.7-5.8 5.6 3.6-2.2.5a12 12 0 0 1-5 13.4Z" fill="#FFF"/></g></svg>