<?xml version="1.0" encoding="UTF-8"?><svg width="234" height="234" xmlns="http://www.w3.org/2000/svg"><g fill="none" fill-rule="evenodd"><g><circle fill="#FFF" cx="117" cy="117" r="117"/><circle fill="#000" cx="117" cy="117" r="109.2"/><circle fill="#FFF" cx="117" cy="117" r="95.5"/><path fill="#FFF" d="m163.4 111.8 67.3 10.6-2.1 13.6-67.4-10.7zM29.4 46l40.4 27.4-18.6 27.5-40.4-27.3zM184 94.8l40.7-13.3 1.9 5.6-40.8 13.3zM5.8 108.1h33.1v21.4H5.8zM193.8 81.2l25.8-13.7 1.8 3.4-25.8 13.7z"/><circle fill="#000" cx="116" cy="118" r="90.7"/></g><path d="m141.7 80 3.3-19.9c-23.2 0-42.5-2-56.9-6.1L82 73.5c18 4 30.4 5.4 59.7 6.5Zm-66 92c4.6-5.7 10.4-12.2 16.8-18.5 10.2-10.2 15.8-14 21-14 2 0 3.5.7 4.5 1.7 1 1.3 1.4 3.2 1.6 8.3.4 7.5 1 10 3 13.3 3.7 5.8 10.2 8.3 21.7 8.3 6.7 0 11-.4 19.6-1.7 4.6-.6 6.4-.9 8.1-1h.7l3.3-.3-2.2-22.5a71.7 71.7 0 0 1-26.7 5.3c-5 0-6.7-2-7.2-8.4-.7-9.3-1-10.7-3.2-14-2.2-3.2-6.1-5-10.9-5-2 0-2.7.1-5.1.9 1.7-1.3 6.8-5.7 11.8-10l.5-.5 8-7.1c5.7-5.2 7.9-7 10-8.4l.3-.1.2-.2h.2L140.1 83a50 50 0 0 1-12 2c-19.2 2.1-34.8 3-48.5 3-2.7 0-4 0-7.7-.3l1.2 21.3c3.6-.5 6.2-.9 10.8-1.3 17.3-1.5 24.2-2.3 31.3-3.5l-4.1 3.7-.4.4-7.3 6.8A426 426 0 0 1 59 152.9L75.6 172Z" fill="#FFF" fill-rule="nonzero"/></g></svg>