<?xml version="1.0" encoding="UTF-8"?><svg width="44" height="43" xmlns="http://www.w3.org/2000/svg"><g fill="none" fill-rule="evenodd"><g transform="translate(14)"><path d="M14 41c2 0 2.3-1.2 4-2.8 1.6-1.4 3.6 3.5 4.8 1.3A50 50 0 0 0 28 21.2C28 12.2 21.7 5 14 5S0 12.2 0 21.2a49 49 0 0 0 4.8 18.3c1.3 2.2 3-2.7 4.5-1.3C11 39.8 12 41 14 41Z" stroke="#FFF" stroke-width="2"/><ellipse stroke="#FFF" cx="17" cy="14" rx="1.5" ry="2.5"/><ellipse stroke="#FFF" cx="11" cy="14" rx="1.5" ry="2.5"/><path d="M13.9 0h.3c5.7.2 5 4.6 7.1 3.7 1.4-.6 2.9-.4 4.5.6l.2.1-1.5 5.6a28 28 0 0 0-5.4-3.7c-1.1-.5-2.8-.9-4.8-1H14c-2 .1-3.8.5-5 1A28 28 0 0 0 3.5 10L2 4.4c1.6-1 3.2-1.3 4.7-.7C8.8 4.6 7.8 0 13.9 0Zm-3.5 3.5c-.9 0-1.5.4-1.5.9s.6.9 1.5.9c.8 0 1.5-.4 1.5-.9s-.7-.9-1.5-.9Zm7 0c-.8 0-1.5.4-1.5.9s.7.9 1.5.9c.9 0 1.5-.4 1.5-.9s-.6-.9-1.5-.9ZM14 1c-.6 0-1 .6-1 1.3 0 .7.4 1.3 1 1.3s1-.6 1-1.3c0-.7-.4-1.3-1-1.3Z" fill="#FFF"/></g><path d="M2.9 26.2c1.3-5 4.6-5.5 10-1.4l.1-.3c2-6.3 5-7.7 9-4.5 4 3.4 2.6 9.8-4.3 19.4-11.2-3.7-16.1-8-14.8-13.2Z" fill="#FFF"/></g></svg>