<?xml version="1.0" encoding="UTF-8"?><svg width="44" height="39" xmlns="http://www.w3.org/2000/svg"><g stroke="#FFF" stroke-width="2" fill="none" fill-rule="evenodd"><path d="M27.5 38c2.2 0 2.6-3.6 4.5-5.2 1.7-1.5 3.9 6 5.2 3.6 2.9-5 5.8-14.1 5.8-18.8C43 8.4 36 1 27.5 1 18.9 1 12 8.4 12 17.6c0 4.7 2.5 13.9 5.4 18.8 1.3 2.3 3.1-5 5-3.6 1.8 1.6 3 5.2 5.1 5.2Z"/><path d="M2 19.5c1-1.3 3-2.7 6.2-4 3.2-1.2 5.7-1.7 7.3-1.4l3.8 9.5c1 2.5.8 5.4-.7 7.7a6.4 6.4 0 0 1-6.7 2.7c-2.8-.6-5-2.5-6-5L2 19.5ZM28 14.6c1.7 0 2.8-.1 3.4-.6.6-.5 1.3-1.8 2.3-4 1.7 2.6 1.7 4.7 0 6.2-1.8 1.5-3.7 1-5.7-1.6ZM26 14.6c-1.5 0-2.4-.1-3-.6-.4-.5-1-1.8-1.8-4-1.6 2.6-1.6 4.7 0 6.2 1.5 1.5 3.1 1 4.8-1.6Z"/></g></svg>