<?xml version="1.0" encoding="UTF-8"?><svg width="27" height="40" xmlns="http://www.w3.org/2000/svg"><g stroke="#FFF" fill="none" fill-rule="evenodd"><rect stroke-width="2" x="1" y="1" width="25" height="38" rx="1"/><path d="M14 11.6c1.7 0 2.8-.1 3.4-.6.6-.5 1.3-1.8 2.3-4 1.7 2.6 1.7 4.7 0 6.2-1.8 1.5-3.7 1-5.7-1.6ZM12 11.6c-1.5 0-2.4-.1-3-.6-.4-.5-1-1.8-1.8-4-1.6 2.6-1.6 4.7 0 6.2 1.5 1.5 3.1 1 4.8-1.6Z" stroke-width="2"/><path stroke-linecap="square" d="m25.9 9.4-4 22.4-11 1.2-8 5.8M1.5 33 6 24l-4.5-2.5"/></g></svg>