<?xml version="1.0" encoding="UTF-8"?><svg width="79" height="117" xmlns="http://www.w3.org/2000/svg"><g fill="none" fill-rule="evenodd"><path fill="#000" d="M4 4h72v110H4z"/><path d="M77 0a2 2 0 0 1 2 2v113a2 2 0 0 1-2 2H2a2 2 0 0 1-2-2V2C0 .9.9 0 2 0h75Zm-7 6H10L12 16.8l-7-4.6v93.3l7-4.5-2.2 11h60.3L68 101l7 4.6V12.2l-7 4.6L70 6ZM16 16.2c8 .7 16.7 4.7 26 12a36.3 36.3 0 0 1 14.8 27v.4c2.1 14.2-3 26.9-11.7 29.6a38 38 0 0 0 17 14.8 50.4 50.4 0 0 1-26-12 36.3 36.3 0 0 1-14.9-27v-.2c-2.3-14.3 2.9-27.2 11.6-30-2.7-5.2-8.3-10-16.8-14.6ZM39 44c-3.9 0-7 6.3-7 14s3.1 14 7 14 7-6.3 7-14-3.1-14-7-14Z" fill="#FFF"/></g></svg>