<?xml version="1.0" encoding="UTF-8"?><svg width="111" height="135" xmlns="http://www.w3.org/2000/svg"><path d="M109.2 23.5a2 2 0 0 1 1.3 2.5L75.6 133.4a2 2 0 0 1-2.5 1.3L1.8 111.5A2 2 0 0 1 .5 109L35.4 1.6A2 2 0 0 1 37.9.3l71.3 23.2Zm-8.4 3.5L43.6 8.4l-1.4 11-5.2-6.5-28.8 88.7 8-2.2-5.4 9.8L68 127.8l1.3-11 5.3 6.4 28.9-88.7-8.1 2.1 5.3-9.6Zm-54.6-7a50.4 50.4 0 0 1 21 19.4A36.3 36.3 0 0 1 73 69.8v.3c-2.4 14.1-11.2 24.6-20.3 24.6A38 38 0 0 0 64 113.9a50.4 50.4 0 0 1-21-19.3 36.3 36.3 0 0 1-5.7-30.4V64c2.2-14.2 11-25 20.3-25-1-5.7-4.8-12-11.5-19Zm13.3 33.6c-3.7-1.2-8.6 3.8-11 11.1-2.4 7.4-1.3 14.3 2.4 15.5 3.6 1.2 8.5-3.8 11-11.2 2.3-7.3 1.3-14.3-2.4-15.4Z" fill="#FFF" fill-rule="evenodd"/></svg>