<?xml version="1.0" encoding="UTF-8"?><svg width="380" height="246" xmlns="http://www.w3.org/2000/svg"><g fill="#FFF" fill-rule="evenodd"><path d="m43.1.4 1 1.8-.9.4-8.6 4.9h8.1l282 .5h8.2L324.3 3l-.9-.5 1-1.7.9.5 12 6.7 1.5.9-1.6.9-12 6.7-.8.5-1-1.8.9-.4 8.6-5h-8.1l-282-.4h-8.2l8.6 4.9.9.5-1 1.7-.9-.5-12-6.7-1.5-.9 1.6-.9 12-6.7.8-.5ZM370.5 40.7l.9 1.6 6.8 12 .4.8-1.7 1-.5-.9-4.9-8.6v8.1l.5 165v8.2l4.8-8.7.5-.8 1.8 1-.5.8-6.7 12-.9 1.6-.9-1.6-6.8-12-.4-.8 1.7-1 .5.9 4.9 8.6v-8.1l-.5-165v-8.2l-4.8 8.7-.5.8-1.8-1 .5-.8 6.7-12 .9-1.6Z" fill-rule="nonzero"/><path d="M17.5 245A16.5 16.5 0 0 1 1 228V45c.3-8.7 7.3-15.7 16-16h314.5A16.5 16.5 0 0 1 348 46v183a16.5 16.5 0 0 1-16 16H17.5Zm24-8H324c8.3-.3 15-7.1 15-15.5V52c-.3-8-6.7-14.6-14.7-15H41.5c-8 0-14.5 6-15.4 13.7v.3H26v170.5c0 8.6 7 15.5 15.5 15.5Zm-28-134a4.5 4.5 0 1 0 0-9 4.5 4.5 0 0 0 0 9Zm-.5 67.5a4.5 4.5 0 0 0 4.5-5v-47a4.5 4.5 0 0 0-9 0V166c0 2.5 2 4.5 4.5 4.5Z"/></g></svg>