<svg width="522" height="391" xmlns="http://www.w3.org/2000/svg"><g fill="none" fill-rule="evenodd"><path d="M497 0a25 25 0 0125 25v341a25 25 0 01-25 25H25a25 25 0 01-25-25V25A25 25 0 0125 0h472zM187.3 205.8L28.7 358.7a6 6 0 004.2 10.3H490a6 6 0 004.2-10.3L335.9 206a6 6 0 00-8-.3l-63 53.3a6 6 0 01-7.8 0l-61.7-53.4a6 6 0 00-8.1.2zM33.5 68.8a7 7 0 00-7 7V329a7 7 0 0012 4.8l127.1-133.3a7 7 0 00-.2-10L38.3 70.7a7 7 0 00-4.8-1.9zm461.8-3.9a7 7 0 00-9.9.3l-127 133.3a7 7 0 00.2 10l127.1 119.9a7 7 0 0011.8-5.1V70a7 7 0 00-2.2-5zM485.7 32H37.3a7 7 0 00-4.5 12.4L257 232.2a7 7 0 009 0L490.2 44.4a7 7 0 00-4.5-12.4z" fill="#FFF"/><path d="M270 285c28.2-.4 23.5-.4 36.3-15.2 5.6-6.5-2-12.2 0-20.2 1.4-5.4 6.1-22.6 4.1-29-.7-2.2 9.3-25.6-7.3-32.7-16.7-7-28-3.8-29.6-7-2-4.2-24-5.3-25 0-.5 3.8-3-.8-19.7 7-20.2 9.5-27.7 16.5-27.7 52.4s9.4 16.4 21.3 29.5c11.9 13 5.5 15.7 14.9 15.7s7-.5 32.8-.5z" fill="#B40000"/><circle fill="#620000" cx="257.5" cy="231.5" r="46.5"/><path d="M237 209l7.9 44H237v-44zm27.5 0l5.8 38.3V209h5.7v44h-5.7L258 217.6v8.1l4.9 27.3h-10.6L237 209h9.5l5.8 38.3V209h12.2z" fill="#FFF"/></g></svg>