<svg width="615" height="510" xmlns="http://www.w3.org/2000/svg"><g fill="none" fill-rule="evenodd"><path fill="#FFF" d="M227 59h21L146 413h-21zM90.7 129H116L24 239.4 116 343H90.7L0 239.4zM524.3 343H499l92-110.4L499 129h25.3L615 232.6z"/><path d="M245.6 497c9.8 0 18.8-1.2 26.3-3.3 2.1-.5 86.4-2.4 92.6-4.7 6.2-2.3-79.1-1.2-77.3-2.3 2.2-1.3.9-.5 2.3-2 1.7-2 209.5 0 209.5-6.2 0-3-208.7-5.8-211.8-8.3-7.7-6-23.5-10.2-41.6-10.2-25.7 0-46.6 8.3-46.6 18.5s20.9 18.5 46.6 18.5z" fill="#B40000"/><path d="M438.6 24c24.8 10.5 39.6 27.4 44.2 50.6l-104 245-70 87.9-4.5-2.6-26.6 35.3 3.3 2.2-35.7 44.8 62.4-147c6.5-3.2 17.5-14.8 24.4-30.9 8.7-20.5 19-35.7 3-42.5-16-6.8-19.5 11.3-28.2 31.8-6.8 16-7.6 31.8-5.6 38.8l-61.4 144.7 7.3-55.8h3.7l6.8-39.5-5-2.1 14.7-112.3 104-245.1c2-1.3 4-2.5 6-3.5l-52.6 124c3.2-4.7 5.6-7.9 7.1-9.5 1.4-1.5 3-2.5 4.4-2.9h.3L385 20.4l4.3-1.4-48.9 115.1c1-1 1.8-1.7 2.7-2.1l1.8-.9h.1l47.5-112.9a74.4 74.4 0 0146 5.7zm-83.4 123.4l-26 61.3 10.7 4.5 15.3-65.8zm13 5.5l-13-5.5-5.3 70.1 14 5.9 8.7-37.6 5.3-12.7-4 54.6 7.8 3.3 26-61.3-7.8-3.3-22.6 53.3L392 163l-16.2-6.8-22.6 53.2 14.9-56.6z" fill="#FFF"/></g></svg>