<svg width="612" height="613" xmlns="http://www.w3.org/2000/svg"><g fill="none" fill-rule="evenodd"><path d="M468.1 69c-11.8 8.6-15.9 12.6-12.3 12.1 24.3-3.4 42.4 1 57.3 8 1.7.9 13.6 4 35.5 9.5-16.2-2.3-23.6-3-22.4-2.3 6 3.6 11.4 7.5 16.7 11 19.2 12.8 57.4 19.7 66.1 56.9 8.7 37.2-4.8 72.6-9.5 79.4-4.6 6.8-17-24.2-16.8-23.6.3 1.6-.6 4-1.6 6.5l-.5 1c-1 2.8-2 5.6-1.2 7.3 8.2 15.7 32.6 47.4 32.6 61 0 3.7-10.9 8.3-32.6 13.7l3.3 36.7c-9.4 38.6-16.2 59-20.3 61.4-6.8 4-30.1 4-69.9 0l-12.5 22v18.1l-11.9 10.8V477l58.1 15.8 22.4 81c-44.7 29.2-79.2 42-103.7 38.1-61.3-9.5-95-62.4-161.1-81-65.5-18.6-150.7-15.2-255.8 10a6976.7 6976.7 0 0 1 172.2-93.2 185.2 185.2 0 0 1 107.3-18l3.6-7a21 21 0 0 1 24.2-10.6l6 1.6L348 380c-11-4.4-20.8-23.8-29.2-58.3-2.3-9.4-14-29.4-35.1-60h19l-19-11.7 15.6-6.5-22.5-11c27.5-42.8 41.5-65.6 42-68.4 1.9-10.9 45.4-57 88-74.7 1.4-.6 8.6-3 21.7-7.4l1.4-.5L468 69Zm-350-69c65.3 0 118.2 59 118.2 131.7 0 11.7-2.9 28.4-8.7 49.8L262 219l-66 11.8c-32 9.5-58 14.3-77.8 14.3C52.9 245 0 204.4 0 131.7 0 58.9 52.9 0 118.2 0Z" fill="#FFF"/><path d="m72 68 18.4 102H72V68Zm62.3 0 13.3 88.7V68H161v102h-13.4L121 93.8v24l9.4 52.2h-22.8L72 68h22.3l13.3 88.7V68h26.7Z" fill="#B40000"/></g></svg>