<?xml version="1.0" encoding="UTF-8"?><svg width="132" height="132" xmlns="http://www.w3.org/2000/svg"><g fill="none" fill-rule="evenodd"><circle fill="#FFF" cx="66" cy="66" r="66"/><path d="M35.2 99.2c0 4.3 3.5 7.8 7.8 7.8h47c4.3 0 7.8-3.5 7.8-7.8V44.8H35.2v54.4Zm44.3-41.5c0-1.4 1.2-2.6 2.6-2.6 1.5 0 2.7 1.2 2.7 2.6V94c0 1.5-1.2 2.6-2.7 2.6a2.6 2.6 0 0 1-2.6-2.6V57.7Zm-15.6 0c0-1.4 1.2-2.6 2.6-2.6 1.4 0 2.6 1.2 2.6 2.6V94a2.6 2.6 0 0 1-5.2 0V57.7Zm-15.6 0a2.6 2.6 0 0 1 5.2 0V94a2.6 2.6 0 0 1-5.2 0V57.7Zm52-28.5H80.9l-1.5-3a4 4 0 0 0-3.5-2.2H57.2c-1.5 0-2.9.8-3.5 2.2l-1.5 3H32.6a2.6 2.6 0 0 0-2.6 2.6V37c0 1.4 1.2 2.6 2.6 2.6h67.8c1.4 0 2.6-1.2 2.6-2.6v-5.2c0-1.5-1.2-2.6-2.6-2.6Z" fill="#000" fill-rule="nonzero"/></g></svg>