<?xml version="1.0" encoding="UTF-8"?><svg width="234" height="234" xmlns="http://www.w3.org/2000/svg"><g fill="none" fill-rule="evenodd"><g><circle fill="#FFF" cx="117" cy="117" r="117"/><circle fill="#000" cx="117" cy="117" r="109.2"/><circle fill="#FFF" cx="117" cy="117" r="95.5"/><path fill="#FFF" d="m163.4 111.8 67.3 10.6-2.1 13.6-67.4-10.7zM29.4 46l40.4 27.4-18.6 27.5-40.4-27.3zM184 94.8l40.7-13.3 1.9 5.6-40.8 13.3zM5.8 108.1h33.1v21.4H5.8zM193.8 81.2l25.8-13.7 1.8 3.4-25.8 13.7z"/><circle fill="#000" cx="116" cy="118" r="90.7"/></g><path d="M123.4 177c12-1.2 19.2-2.9 26.2-6 15.7-7.1 24.4-19.9 24.4-35.8a33 33 0 0 0-23.7-32c.9-2.6 1.8-4.8 2.7-6.7L132.2 91c-.2 2.6-.6 4.5-1.7 7.5-2.3-.2-3.3-.3-5.2-.3h-.9c-4.4 0-6.7.3-12.5 1.2v-3.9l.1-1v-.3l.1-1.2v-.2l.1-.9a505.5 505.5 0 0 0 48.7-4.3h.3l1.8-.1-1-21.3c-10.4 3-27.6 5.3-48.6 6.5.8-7.7 1-9.8 2-13.8L93.3 58c.2 1.6.2 2.6.2 4.4v1.1l-.1 4.2-.4 5.7-1.8.1h-.8c-10 0-16.6-.5-24.1-2l.2 20.8 3.5-.1h.7l6.4.1 10.2.2h4.9a356 356 0 0 0 0 9.4v2.1c-8.1 3.4-13 6.7-18.1 12a43.3 43.3 0 0 0-13 30.5c0 16.4 9.7 26.8 25 26.8a46 46 0 0 0 30.1-13.7c3 5 5.2 10.3 7.3 17.4Zm-11-41c-.6-6.3-.7-10-.7-18 3.6-1.1 6.8-1.5 10.7-1.5h.6c.8 0 1.3 0 2.3.2a81 81 0 0 1-12.8 19.3Zm9 19.5c9.6-9.8 16.8-20.7 22.8-35 5.9 3 8.4 6.8 8.4 12.8 0 7.4-4.9 14.4-12.4 18a49 49 0 0 1-18.8 4.2Zm-35-5.8c-3.8 0-6-2.7-6-7.4 0-7 4.1-13.2 11.6-18 .2 9 .9 16.5 2.1 23a14 14 0 0 1-7.6 2.4Z" fill="#FFF" fill-rule="nonzero"/></g></svg>