<svg xmlns="http://www.w3.org/2000/svg" viewBox="0 0 199 205"><path d="M89 0c.6 0 2.4 1.4 4.6 3.2l.7.5 3.6 3.1.5.5.3.2.5.4c3.2 2.8 6 5.2 6.8 5.2a80.4 80.4 0 0 1 65.5 42.6c1 2 16.5 2.8 17.4 4.9 1 2.3-12.5 6-11.7 8.4a86 86 0 0 1 4.5 27.5c0 1.5 17.3 11.7 17.3 13.3 0 1.1-3.7 1.8-7.6 2.4l-.6.1h-.2l-.8.2c-4.1.6-8 1.4-8.2 2.7-2.3 31.7-13.3 69.5-34.7 82-5.1 3-11.2-3.3-18-9.3l-.5-.5a58 58 0 0 0-7.2-5.6c-3.4-2.2-6.5 3.9-9.5 10.4l-.5 1.1c-2.7 5.9-5.3 11.7-8 11.7-2.2 0-4.8-5-7.4-10.7l-.3-.6-.2-.4-.3-.7-.5-1-.3-.8c-3-6.5-6.1-12.4-8.5-10.7-3.7 2.5-7.3 6.4-10.8 9.9l-.5.5c-5.5 5.4-10.7 9.8-15.5 6.7-20.6-13-29.2-48.3-34.7-77-.3-1-5-3.2-10.2-5.4l-.8-.3C6.8 111.8 0 109 0 107.8c0-1.3 20.4-10 20.4-11.3 0-12.3 2.6-24 7.2-34.6.5-1-2.7-2.3-6.4-3.8l-.5-.2-1.4-.5-.7-.3c-4.3-1.7-8.4-3.3-7.9-4.3 1.2-2.3 22.7-1.8 24.1-4A81 81 0 0 1 79.4 16c.8-.2-.7-2.7-2.3-5.3l-.2-.4-.4-.6c-1.4-2.4-2.7-4.7-2-4.8 3.2-.8 16 8.7 19.4 8.4 1.1-.1-.4-3-2.1-6.2l-.3-.5C89.7 3.3 87.9 0 89 0Zm35.2 91h-41L65 129l18.1 38h41l16.9-38-16.8-38ZM111 116l6 13.5-6 13.5H96.4L90 129.5l6.4-13.5H111Zm-9.5-84C70.3 32 45 49.3 45 70.7 45 92 70.3 79 101.5 79s56.5 13 56.5-8.4S132.7 32 101.5 32ZM72 55.6H83c7 0 11.9.4 11.9 3.4 0 3.9-8 10.8-18 10.8s-18-7-18-10.8c0-3 5-3.4 11.9-3.4h1Zm53 0H136c7 0 11.9.4 11.9 3.4 0 3.9-8 10.8-18 10.8s-18-7-18-10.8c0-3 5-3.4 11.9-3.4h1Z" fill="#FFF" fill-rule="evenodd"/></svg>