<?xml version="1.0" encoding="UTF-8"?><svg width="72" height="66" xmlns="http://www.w3.org/2000/svg"><path d="M64.4 41.9H54.1V31.6c0-1.4-1.1-2.6-2.5-2.6h-5.2a2.6 2.6 0 0 0-2.5 2.6v10.3H33.6a2.6 2.6 0 0 0-2.6 2.5v5.2c0 1.4 1.2 2.5 2.6 2.5h10.3v10.3c0 1.4 1.1 2.6 2.5 2.6h5.2c1.4 0 2.5-1.2 2.5-2.6V52.1h10.3c1.4 0 2.6-1.1 2.6-2.5v-5.2c0-1.4-1.2-2.5-2.6-2.5ZM19.2 37a21.9 21.9 0 0 0 18.6 0h2.1C49.3 37 57 44.8 57 54.4v5.4c0 3.4-2.7 6.2-6.1 6.2H6A6.2 6.2 0 0 1 0 59.8v-5.4C0 44.8 7.7 37 17.1 37Zm9.3-37a16.5 16.5 0 1 1 0 33 16.5 16.5 0 0 1 0-33Zm31 0C66.4 0 72 5.6 72 12.5V24c0 .6-.4 1-1 1H59.5C52.6 25 47 19.4 47 12.5V1c0-.6.4-1 1-1h11.5Z" fill="#FFF" fill-rule="nonzero"/></svg>