<?xml version="1.0" encoding="UTF-8"?><svg width="71" height="81" xmlns="http://www.w3.org/2000/svg"><path d="M67 0c2.5 0 4 1.5 4 4v52.7c0 1.5-.5 2.5-1.5 3-.5 2-.5 9.1 0 11.7 1 1 1.5 2 1.5 3V77c0 2.6-2 4.1-4 4.1H15.1A15 15 0 0 1 0 65.8V15.2A15 15 0 0 1 15.2 0Zm-6.1 60.8H15.2a5 5 0 0 0-5 5c0 3 2 5 5 5H61v-10ZM21 37h-6v15h6v-9h3v-3h-3v-3Zm37-7h-6v6H40v3h-3v9h3v3h18V30Zm-7 10v9h-9v-9h9Zm-18-3h-9v3h9v-3ZM18 12h-6v12h3v3h6v-3h-3V12Zm15 0h-6v12h-3v3h6v-3h3V12Zm22 0H40v3h-3v9h3v3h15v-3h3v-9h-3v-3Zm-31 1h-3v11h3V13Zm27 2v9h-9v-9h9Z" fill="#FFF" fill-rule="nonzero"/></svg>