<?xml version="1.0" encoding="UTF-8"?><svg width="96" height="79" xmlns="http://www.w3.org/2000/svg"><defs><filter id="a"><feColorMatrix in="SourceGraphic" values="0 0 0 0 1.000000 0 0 0 0 1.000000 0 0 0 0 1.000000 0 0 0 1.000000 0"/></filter></defs><g transform="translate(.9)" filter="url(#a)" fill="none" fill-rule="evenodd"><g transform="translate(.1)" fill="#D8D8D8"><g transform="translate(60 16)"><path d="m3.6 3 28.1 19-1 1.7L2.5 4.5z"/><path d="M29 21.1 10 39.7l-1.3-1.5 19-18.4z"/><path d="M22 55.3 8.7 38l1.5-1.2L23.5 54z"/><circle cx="28.8" cy="21.4" r="5.2"/><circle cx="5.2" cy="5.2" r="5.2"/><circle cx="9.9" cy="37.6" r="5.2"/><circle cx="22.2" cy="53.8" r="5.2"/></g><path d="M0 2C0 .9.9 0 2 0h90a2 2 0 0 1 2 2v6.5a2 2 0 0 1-2 2H10.4V77a2 2 0 0 1-2 2H2a2 2 0 0 1-2-2V2Z"/><rect x="14" y="17" width="30" height="9" rx="2"/><rect x="14" y="33" width="55" height="9" rx="2"/><rect x="14" y="49" width="32" height="9" rx="2"/><rect x="14" y="65" width="49" height="9" rx="2"/></g></g></svg>