<?xml version="1.0" encoding="UTF-8"?><svg width="45" height="45" xmlns="http://www.w3.org/2000/svg"><g transform="translate(.9 .2)" stroke="#FFF" stroke-width="2" fill="none" fill-rule="evenodd"><circle cx="22.1" cy="21.8" r="14"/><path d="m6.5 37.4 2.7-8.8 6.1 6.1-8.8 2.7ZM37.5 37.4l-2.7-8.8-6.1 6.1 8.8 2.7ZM6.5 6.2l8.8 2.6-6.1 6.1-2.7-8.7Z"/><path d="m6.5 6.2 8.8 2.6-6.1 6.1-2.7-8.7ZM37.5 6.2l-8.8 2.6 6.1 6.1 2.7-8.7ZM22.1 4.8l4 10c-1.2 1.4-2.4 2.2-4 2.2-1.5 0-2.8-.8-3.8-2.2l3.8-10ZM22.1 38.2l4-10c-1.2-1.4-2.4-2.2-4-2.2-1.5 0-2.8.8-3.8 2.2l3.8 10ZM39.1 21.8l-10 3.8c-1.4-1-2.2-2.3-2.2-3.8 0-1.6.8-2.8 2.2-4l10 4ZM4.7 21.8l10 3.8c1.4-1 2.2-2.3 2.2-3.8 0-1.6-.8-2.8-2.2-4l-10 4Z"/></g></svg>