<?xml version="1.0" encoding="UTF-8"?><svg width="40" height="40" xmlns="http://www.w3.org/2000/svg"><g fill="none" fill-rule="evenodd"><g stroke="#FFF" stroke-width="2"><path d="m20 1 14.2 4.8L39 20l-4.7 14.2L20 39 5.8 34.2 1 20 5.8 5.8 20 1Z"/><circle cx="20" cy="20" r="16"/></g><g fill="#FFF"><path d="m12.7 26.5 1.8.9-4 8-1.8-.9zM19.3 7l5.2-1.4 2 5L17 26.6l-2.8-.9-2.3-1.8z"/><path d="m10 22.9 4 3.2 5 1.3-1.4 2.7-8.9-4.5z"/></g><path fill="#FFF" d="M25.5 15h5v8.8H33L28 30l-5-6.2h2.5z"/></g></svg>